<mxfile host="app.diagrams.net" modified="2023-09-25T16:11:17.478Z" agent="Mozilla/5.0 (Windows NT 10.0; Win64; x64) AppleWebKit/537.36 (KHTML, like Gecko) Chrome/116.0.0.0 Safari/537.36" etag="kwXzrqq5GDUXIV--qOOX" version="21.8.2" type="device">
  <diagram id="1RmJTtReoHlHMGFphu7M" name="StrÃ¡nka-1">
    <mxGraphModel dx="1434" dy="750" grid="1" gridSize="10" guides="1" tooltips="1" connect="1" arrows="1" fold="1" page="1" pageScale="1" pageWidth="827" pageHeight="1169" math="0" shadow="0">
      <root>
        <mxCell id="0" />
        <mxCell id="1" parent="0" />
        <mxCell id="qrW4H9jf6A6-LZHgsCKI-1" value="App&lt;br&gt;Document" style="rounded=0;whiteSpace=wrap;html=1;" parent="1" vertex="1">
          <mxGeometry x="206" y="90" width="66" height="40" as="geometry" />
        </mxCell>
        <mxCell id="qrW4H9jf6A6-LZHgsCKI-3" value="Root&lt;br&gt;&amp;lt;html&amp;gt;" style="rounded=0;whiteSpace=wrap;html=1;" parent="1" vertex="1">
          <mxGeometry x="206" y="150" width="66" height="40" as="geometry" />
        </mxCell>
        <mxCell id="qrW4H9jf6A6-LZHgsCKI-5" value="Head&lt;br&gt;&amp;lt;head&amp;gt;" style="rounded=0;whiteSpace=wrap;html=1;" parent="1" vertex="1">
          <mxGeometry x="26" y="230" width="66" height="40" as="geometry" />
        </mxCell>
        <mxCell id="qrW4H9jf6A6-LZHgsCKI-6" value="Body&lt;br&gt;&amp;lt;body&amp;gt;" style="rounded=0;whiteSpace=wrap;html=1;" parent="1" vertex="1">
          <mxGeometry x="426" y="230" width="66" height="40" as="geometry" />
        </mxCell>
        <mxCell id="qrW4H9jf6A6-LZHgsCKI-7" value="Header&lt;br&gt;&amp;lt;header&amp;gt;" style="rounded=0;whiteSpace=wrap;html=1;" parent="1" vertex="1">
          <mxGeometry x="110" y="300" width="66" height="40" as="geometry" />
        </mxCell>
        <mxCell id="qrW4H9jf6A6-LZHgsCKI-8" value="Main" style="rounded=0;whiteSpace=wrap;html=1;" parent="1" vertex="1">
          <mxGeometry x="426" y="300" width="66" height="40" as="geometry" />
        </mxCell>
        <mxCell id="qrW4H9jf6A6-LZHgsCKI-9" value="Footer&lt;br&gt;&amp;lt;footer&amp;gt;" style="rounded=0;whiteSpace=wrap;html=1;" parent="1" vertex="1">
          <mxGeometry x="696" y="300" width="66" height="40" as="geometry" />
        </mxCell>
        <mxCell id="qrW4H9jf6A6-LZHgsCKI-11" value="" style="endArrow=none;html=1;rounded=0;entryX=0.5;entryY=1;entryDx=0;entryDy=0;exitX=0.5;exitY=0;exitDx=0;exitDy=0;" parent="1" source="qrW4H9jf6A6-LZHgsCKI-5" target="qrW4H9jf6A6-LZHgsCKI-3" edge="1">
          <mxGeometry width="50" height="50" relative="1" as="geometry">
            <mxPoint x="296" y="260" as="sourcePoint" />
            <mxPoint x="346" y="210" as="targetPoint" />
          </mxGeometry>
        </mxCell>
        <mxCell id="qrW4H9jf6A6-LZHgsCKI-12" value="" style="endArrow=none;html=1;rounded=0;entryX=0.5;entryY=1;entryDx=0;entryDy=0;" parent="1" source="qrW4H9jf6A6-LZHgsCKI-3" target="qrW4H9jf6A6-LZHgsCKI-1" edge="1">
          <mxGeometry width="50" height="50" relative="1" as="geometry">
            <mxPoint x="322" y="260" as="sourcePoint" />
            <mxPoint x="372" y="210" as="targetPoint" />
          </mxGeometry>
        </mxCell>
        <mxCell id="qrW4H9jf6A6-LZHgsCKI-13" value="" style="endArrow=none;html=1;rounded=0;entryX=0.5;entryY=1;entryDx=0;entryDy=0;exitX=0.5;exitY=0;exitDx=0;exitDy=0;" parent="1" source="qrW4H9jf6A6-LZHgsCKI-6" target="qrW4H9jf6A6-LZHgsCKI-3" edge="1">
          <mxGeometry width="50" height="50" relative="1" as="geometry">
            <mxPoint x="296" y="260" as="sourcePoint" />
            <mxPoint x="346" y="210" as="targetPoint" />
          </mxGeometry>
        </mxCell>
        <mxCell id="qrW4H9jf6A6-LZHgsCKI-14" value="" style="endArrow=none;html=1;rounded=0;entryX=0.5;entryY=1;entryDx=0;entryDy=0;exitX=0.5;exitY=0;exitDx=0;exitDy=0;" parent="1" source="qrW4H9jf6A6-LZHgsCKI-7" target="qrW4H9jf6A6-LZHgsCKI-6" edge="1">
          <mxGeometry width="50" height="50" relative="1" as="geometry">
            <mxPoint x="296" y="260" as="sourcePoint" />
            <mxPoint x="346" y="210" as="targetPoint" />
          </mxGeometry>
        </mxCell>
        <mxCell id="qrW4H9jf6A6-LZHgsCKI-15" value="" style="endArrow=none;html=1;rounded=0;entryX=0.5;entryY=1;entryDx=0;entryDy=0;exitX=0.5;exitY=0;exitDx=0;exitDy=0;" parent="1" source="qrW4H9jf6A6-LZHgsCKI-8" target="qrW4H9jf6A6-LZHgsCKI-6" edge="1">
          <mxGeometry width="50" height="50" relative="1" as="geometry">
            <mxPoint x="296" y="260" as="sourcePoint" />
            <mxPoint x="346" y="210" as="targetPoint" />
          </mxGeometry>
        </mxCell>
        <mxCell id="qrW4H9jf6A6-LZHgsCKI-16" value="" style="endArrow=none;html=1;rounded=0;entryX=0.5;entryY=1;entryDx=0;entryDy=0;exitX=0.5;exitY=0;exitDx=0;exitDy=0;" parent="1" source="qrW4H9jf6A6-LZHgsCKI-9" target="qrW4H9jf6A6-LZHgsCKI-6" edge="1">
          <mxGeometry width="50" height="50" relative="1" as="geometry">
            <mxPoint x="376" y="330" as="sourcePoint" />
            <mxPoint x="426" y="280" as="targetPoint" />
          </mxGeometry>
        </mxCell>
        <mxCell id="qrW4H9jf6A6-LZHgsCKI-17" value="Logo?&lt;br&gt;probably not" style="rounded=0;whiteSpace=wrap;html=1;" parent="1" vertex="1">
          <mxGeometry x="36" y="360" width="66" height="40" as="geometry" />
        </mxCell>
        <mxCell id="qrW4H9jf6A6-LZHgsCKI-18" value="Navbar" style="rounded=0;whiteSpace=wrap;html=1;" parent="1" vertex="1">
          <mxGeometry x="110" y="360" width="66" height="40" as="geometry" />
        </mxCell>
        <mxCell id="qrW4H9jf6A6-LZHgsCKI-19" value="" style="endArrow=none;html=1;rounded=0;entryX=0.5;entryY=1;entryDx=0;entryDy=0;exitX=0.5;exitY=0;exitDx=0;exitDy=0;" parent="1" source="qrW4H9jf6A6-LZHgsCKI-18" target="qrW4H9jf6A6-LZHgsCKI-7" edge="1">
          <mxGeometry width="50" height="50" relative="1" as="geometry">
            <mxPoint x="176" y="340" as="sourcePoint" />
            <mxPoint x="226" y="290" as="targetPoint" />
          </mxGeometry>
        </mxCell>
        <mxCell id="qrW4H9jf6A6-LZHgsCKI-20" value="" style="endArrow=none;html=1;rounded=0;entryX=0.5;entryY=1;entryDx=0;entryDy=0;exitX=0.5;exitY=0;exitDx=0;exitDy=0;" parent="1" source="qrW4H9jf6A6-LZHgsCKI-17" target="qrW4H9jf6A6-LZHgsCKI-7" edge="1">
          <mxGeometry width="50" height="50" relative="1" as="geometry">
            <mxPoint x="176" y="340" as="sourcePoint" />
            <mxPoint x="226" y="290" as="targetPoint" />
          </mxGeometry>
        </mxCell>
        <mxCell id="qrW4H9jf6A6-LZHgsCKI-21" value="Darkmode&lt;br&gt;toggle?" style="rounded=0;whiteSpace=wrap;html=1;" parent="1" vertex="1">
          <mxGeometry x="186" y="360" width="66" height="40" as="geometry" />
        </mxCell>
        <mxCell id="qrW4H9jf6A6-LZHgsCKI-22" value="" style="endArrow=none;html=1;rounded=0;exitX=0.5;exitY=1;exitDx=0;exitDy=0;entryX=0.5;entryY=0;entryDx=0;entryDy=0;" parent="1" source="qrW4H9jf6A6-LZHgsCKI-7" target="qrW4H9jf6A6-LZHgsCKI-21" edge="1">
          <mxGeometry width="50" height="50" relative="1" as="geometry">
            <mxPoint x="176" y="340" as="sourcePoint" />
            <mxPoint x="226" y="290" as="targetPoint" />
          </mxGeometry>
        </mxCell>
        <mxCell id="qrW4H9jf6A6-LZHgsCKI-23" value="Introduction&lt;br&gt;My name is..." style="rounded=0;whiteSpace=wrap;html=1;" parent="1" vertex="1">
          <mxGeometry x="266" y="360" width="66" height="40" as="geometry" />
        </mxCell>
        <mxCell id="qrW4H9jf6A6-LZHgsCKI-24" value="About me" style="rounded=0;whiteSpace=wrap;html=1;" parent="1" vertex="1">
          <mxGeometry x="346" y="360" width="66" height="40" as="geometry" />
        </mxCell>
        <mxCell id="qrW4H9jf6A6-LZHgsCKI-25" value="Experience&lt;br&gt;Jobs" style="rounded=0;whiteSpace=wrap;html=1;" parent="1" vertex="1">
          <mxGeometry x="426" y="360" width="66" height="40" as="geometry" />
        </mxCell>
        <mxCell id="qrW4H9jf6A6-LZHgsCKI-26" value="Projects" style="rounded=0;whiteSpace=wrap;html=1;" parent="1" vertex="1">
          <mxGeometry x="506" y="360" width="66" height="40" as="geometry" />
        </mxCell>
        <mxCell id="qrW4H9jf6A6-LZHgsCKI-27" value="Contact" style="rounded=0;whiteSpace=wrap;html=1;" parent="1" vertex="1">
          <mxGeometry x="580" y="360" width="66" height="40" as="geometry" />
        </mxCell>
        <mxCell id="qrW4H9jf6A6-LZHgsCKI-28" value="Created by" style="rounded=0;whiteSpace=wrap;html=1;" parent="1" vertex="1">
          <mxGeometry x="656" y="360" width="66" height="40" as="geometry" />
        </mxCell>
        <mxCell id="qrW4H9jf6A6-LZHgsCKI-29" value="Links" style="rounded=0;whiteSpace=wrap;html=1;" parent="1" vertex="1">
          <mxGeometry x="736" y="360" width="66" height="40" as="geometry" />
        </mxCell>
        <mxCell id="qrW4H9jf6A6-LZHgsCKI-32" value="" style="endArrow=none;html=1;rounded=0;entryX=0.5;entryY=1;entryDx=0;entryDy=0;exitX=0.5;exitY=0;exitDx=0;exitDy=0;" parent="1" source="qrW4H9jf6A6-LZHgsCKI-23" target="qrW4H9jf6A6-LZHgsCKI-8" edge="1">
          <mxGeometry width="50" height="50" relative="1" as="geometry">
            <mxPoint x="336" y="320" as="sourcePoint" />
            <mxPoint x="386" y="270" as="targetPoint" />
          </mxGeometry>
        </mxCell>
        <mxCell id="qrW4H9jf6A6-LZHgsCKI-33" value="" style="endArrow=none;html=1;rounded=0;entryX=0.5;entryY=1;entryDx=0;entryDy=0;exitX=0.5;exitY=0;exitDx=0;exitDy=0;" parent="1" source="qrW4H9jf6A6-LZHgsCKI-24" target="qrW4H9jf6A6-LZHgsCKI-8" edge="1">
          <mxGeometry width="50" height="50" relative="1" as="geometry">
            <mxPoint x="336" y="320" as="sourcePoint" />
            <mxPoint x="386" y="270" as="targetPoint" />
          </mxGeometry>
        </mxCell>
        <mxCell id="qrW4H9jf6A6-LZHgsCKI-34" value="" style="endArrow=none;html=1;rounded=0;entryX=0.5;entryY=1;entryDx=0;entryDy=0;exitX=0.5;exitY=0;exitDx=0;exitDy=0;" parent="1" source="qrW4H9jf6A6-LZHgsCKI-25" target="qrW4H9jf6A6-LZHgsCKI-8" edge="1">
          <mxGeometry width="50" height="50" relative="1" as="geometry">
            <mxPoint x="336" y="320" as="sourcePoint" />
            <mxPoint x="386" y="270" as="targetPoint" />
          </mxGeometry>
        </mxCell>
        <mxCell id="qrW4H9jf6A6-LZHgsCKI-35" value="" style="endArrow=none;html=1;rounded=0;entryX=0.5;entryY=1;entryDx=0;entryDy=0;exitX=0.5;exitY=0;exitDx=0;exitDy=0;" parent="1" source="qrW4H9jf6A6-LZHgsCKI-26" target="qrW4H9jf6A6-LZHgsCKI-8" edge="1">
          <mxGeometry width="50" height="50" relative="1" as="geometry">
            <mxPoint x="336" y="320" as="sourcePoint" />
            <mxPoint x="386" y="270" as="targetPoint" />
          </mxGeometry>
        </mxCell>
        <mxCell id="qrW4H9jf6A6-LZHgsCKI-36" value="" style="endArrow=none;html=1;rounded=0;entryX=0.5;entryY=1;entryDx=0;entryDy=0;exitX=0.5;exitY=0;exitDx=0;exitDy=0;" parent="1" source="qrW4H9jf6A6-LZHgsCKI-27" target="qrW4H9jf6A6-LZHgsCKI-8" edge="1">
          <mxGeometry width="50" height="50" relative="1" as="geometry">
            <mxPoint x="336" y="320" as="sourcePoint" />
            <mxPoint x="386" y="270" as="targetPoint" />
          </mxGeometry>
        </mxCell>
        <mxCell id="qrW4H9jf6A6-LZHgsCKI-37" value="" style="endArrow=none;html=1;rounded=0;entryX=0.5;entryY=1;entryDx=0;entryDy=0;exitX=0.5;exitY=0;exitDx=0;exitDy=0;" parent="1" source="qrW4H9jf6A6-LZHgsCKI-28" target="qrW4H9jf6A6-LZHgsCKI-9" edge="1">
          <mxGeometry width="50" height="50" relative="1" as="geometry">
            <mxPoint x="306" y="320" as="sourcePoint" />
            <mxPoint x="356" y="270" as="targetPoint" />
          </mxGeometry>
        </mxCell>
        <mxCell id="qrW4H9jf6A6-LZHgsCKI-38" value="" style="endArrow=none;html=1;rounded=0;entryX=0.5;entryY=1;entryDx=0;entryDy=0;exitX=0.5;exitY=0;exitDx=0;exitDy=0;" parent="1" source="qrW4H9jf6A6-LZHgsCKI-29" target="qrW4H9jf6A6-LZHgsCKI-9" edge="1">
          <mxGeometry width="50" height="50" relative="1" as="geometry">
            <mxPoint x="306" y="320" as="sourcePoint" />
            <mxPoint x="356" y="270" as="targetPoint" />
          </mxGeometry>
        </mxCell>
        <mxCell id="eSDPOWUBPTB39vqKe-Ky-1" value="" style="endArrow=none;html=1;rounded=0;" edge="1" parent="1">
          <mxGeometry width="50" height="50" relative="1" as="geometry">
            <mxPoint x="10" y="250" as="sourcePoint" />
            <mxPoint x="10" y="250" as="targetPoint" />
          </mxGeometry>
        </mxCell>
        <mxCell id="eSDPOWUBPTB39vqKe-Ky-2" value="" style="endArrow=none;html=1;rounded=0;" edge="1" parent="1">
          <mxGeometry width="50" height="50" relative="1" as="geometry">
            <mxPoint x="250" y="80" as="sourcePoint" />
            <mxPoint x="250" y="80" as="targetPoint" />
          </mxGeometry>
        </mxCell>
        <mxCell id="eSDPOWUBPTB39vqKe-Ky-3" value="" style="endArrow=none;html=1;rounded=0;" edge="1" parent="1">
          <mxGeometry width="50" height="50" relative="1" as="geometry">
            <mxPoint x="400" y="410" as="sourcePoint" />
            <mxPoint x="400" y="410" as="targetPoint" />
          </mxGeometry>
        </mxCell>
        <mxCell id="eSDPOWUBPTB39vqKe-Ky-4" value="" style="endArrow=none;html=1;rounded=0;" edge="1" parent="1">
          <mxGeometry width="50" height="50" relative="1" as="geometry">
            <mxPoint x="810" y="360" as="sourcePoint" />
            <mxPoint x="810" y="360" as="targetPoint" />
          </mxGeometry>
        </mxCell>
      </root>
    </mxGraphModel>
  </diagram>
</mxfile>
